<?xml version="1.0" encoding="UTF-8"?>
<!DOCTYPE svg PUBLIC "-//W3C//DTD SVG 1.1//EN" "http://www.w3.org/Graphics/SVG/1.1/DTD/svg11.dtd">
<!-- Creator: CorelDRAW X8 -->
<svg xmlns="http://www.w3.org/2000/svg" xml:space="preserve" width="600px" height="600px" version="1.1" style="shape-rendering:geometricPrecision; text-rendering:geometricPrecision; image-rendering:optimizeQuality; fill-rule:evenodd; clip-rule:evenodd"
viewBox="0 0 600 600"
 xmlns:xlink="http://www.w3.org/1999/xlink">
 <defs>
  <style type="text/css">
   <![CDATA[
    .fil0 {fill:none}
    .fil1 {fill:#E62129}
   ]]>
  </style>
 </defs>
 <g id="图层_x0020_1">
  <metadata id="CorelCorpID_0Corel-Layer"/>
  <rect class="fil0" width="600" height="600"/>
  <rect class="fil0" x="225" y="225" width="150" height="150"/>
  <g id="_2742733384960">
   <rect class="fil1" x="235" y="210" width="10.5347" height="7.79565"/>
   <rect class="fil1" x="235" y="222" width="10.5346" height="34.9748"/>
   <path class="fil1" d="M221 206l-27 54c0,0 -4,9 5,11 9,2 100,1 100,1l0 -11 -91 0c0,0 -3,-1 -1,-3 2,-3 26,-52 26,-52l-12 0z"/>
   <path class="fil1" d="M138 217c2,-1 3,-1 4,-1 2,1 4,2 5,5 0,2 -1,3 -4,3 -4,0 -6,1 -8,1l1 6c4,1 10,1 16,1 1,1 1,3 0,4 -5,1 -11,1 -16,1 1,3 5,7 14,12 1,3 0,4 -3,3 -3,-1 -6,-3 -11,-6l0 22c0,2 -2,3 -5,3 -2,1 -3,1 -3,0l0 -9 0 -16c-7,7 -13,12 -20,14 -2,0 -4,0 -6,-1 -2,-2 -2,-4 -2,-5 5,-1 10,-3 15,-6 7,-4 11,-8 12,-11 -8,0 -13,1 -17,2 -2,0 -3,-1 -2,-3 1,-2 2,-4 4,-5 2,1 3,1 4,1l12 0 0 -7c-7,1 -12,1 -15,0 -2,-2 -2,-3 0,-3 9,-1 17,-3 25,-5zm22 8c2,1 3,1 3,2 0,4 0,9 0,15l0 9c-1,2 -3,3 -4,3 -2,-1 -2,-2 -2,-4l0 -15 -1 -8c0,-2 2,-3 4,-2zm10 -5c0,-1 0,-3 1,-4 0,-1 1,-1 3,-1 3,1 5,2 6,4 0,3 0,7 -1,11 0,4 1,9 1,14 1,4 1,8 2,12 -1,5 -2,8 -4,11 -3,3 -7,5 -12,5 -5,0 -10,-1 -14,-4 -2,-2 -3,-3 -3,-4 7,1 12,2 17,1 3,-2 6,-6 6,-13 0,-6 0,-12 -1,-17 0,-5 -1,-10 -1,-15z"/>
   <polygon class="fil1" points="255,95 350,95 350,113 340,113 340,208 319,208 319,114 255,113 "/>
   <rect class="fil1" x="262" y="117" width="20.7206" height="90.9598"/>
   <polygon class="fil1" points="249,210 369,210 369,218 277,218 276,258 264,258 265,218 249,218 "/>
   <path class="fil1" d="M302 221c10,0 18,8 18,18 0,10 -8,18 -18,18 -9,0 -17,-8 -17,-18 0,-10 8,-18 17,-18zm0 8c6,0 11,4 11,10 0,6 -5,11 -11,11 -5,0 -10,-5 -10,-11 0,-6 5,-10 10,-10z"/>
   <polygon class="fil1" points="262,274 285,274 285,414 317,352 341,352 262,505 "/>
   <path class="fil1" d="M327 222l0 35 8 0 0 -21c0,0 5,-8 9,-7 0,0 5,-1 7,4l0 24 8 -1 0 -26c0,0 -7,-16 -24,-4l0 -4 -8 0z"/>
   <path class="fil1" d="M303 261l0 11 76 0c0,0 2,0 4,-2l25 -49c0,0 0,-2 -1,-7 0,0 -16,-16 -34,5 0,0 -16,24 8,35 0,0 -1,5 -6,7l-72 0zm81 -15l13 -24c0,0 2,-5 -2,-6 0,0 -11,-2 -17,10 0,0 -6,12 2,18l4 2z"/>
   <rect class="fil1" x="317" y="274" width="23.179" height="75.3315"/>
   <path class="fil1" d="M463 239l-8 0 0 4c3,1 5,1 8,0l0 -4zm6 -9l0 6 11 0 0 -3c0,-2 -2,-3 -5,-3l-6 0zm0 13l11 0 0 -4 -11 0 0 4zm-14 -11l0 4 8 0c0,-2 0,-4 0,-6 -4,0 -7,1 -8,2zm-31 -15c1,-1 3,-1 4,0 4,3 9,5 14,6 1,1 0,2 -2,2 -6,0 -11,0 -16,-1 -1,-1 -2,-2 -2,-3 0,-2 1,-4 2,-4zm42 40c-2,1 -3,-1 -3,-5l0 -5 -8 0c0,5 -1,8 -2,8 17,5 33,6 47,4 -5,8 -9,12 -12,12 -3,1 -8,-1 -17,-4 -8,-3 -16,-6 -25,-8 -8,-2 -13,-3 -16,-2 -7,1 -12,2 -15,3 -3,1 -4,0 -3,-3 1,-3 3,-4 4,-5 5,0 10,0 15,-1 1,-1 2,-2 3,-4 0,-1 0,-1 -1,-2 -2,-1 -3,-2 -4,-3 2,-1 3,-3 4,-6 0,-1 -1,-1 -2,-1l-6 0c-2,1 -4,2 -5,2 -1,0 -2,-1 -2,-1 0,-2 0,-3 1,-3 1,-3 3,-4 5,-3 1,1 2,1 4,1 3,0 5,0 8,-1 3,0 5,2 5,5 0,0 -1,1 -2,3 -2,1 -3,2 -5,3 0,0 1,1 4,3 2,1 3,3 2,4 -1,1 -2,3 -4,4 2,1 6,2 12,3 0,-2 -1,-4 -1,-6 1,-3 2,-6 2,-9 0,-4 -1,-7 -2,-10 0,-3 2,-4 5,-4 4,1 8,1 13,0 -2,-1 -4,-2 -5,-3 0,-1 1,-2 3,-2l6 1c3,-1 3,-2 3,-3 -4,-1 -7,-1 -9,-1 -7,1 -11,2 -14,4 -2,1 -3,0 -4,-2 1,-3 2,-4 4,-5 1,0 2,0 4,1 0,0 2,0 4,-1 4,-1 7,-2 10,-2 3,1 5,2 8,2 2,0 3,0 5,-1 1,0 2,1 3,1 2,1 2,2 2,4 -1,1 -1,1 -2,2 -5,0 -9,1 -11,3 0,1 0,2 -1,3 1,0 4,1 8,1 1,-1 3,-1 4,-2 5,1 6,2 5,5 0,2 0,5 0,8 0,6 0,11 0,16 0,2 -1,2 -5,2 -1,0 -2,0 -2,-1l-1 -9 -11 0c1,7 0,10 -3,10z"/>
   <path class="fil1" d="M358 446c15,0 27,12 27,27 0,15 -12,27 -27,27 -14,0 -26,-12 -26,-27 0,-15 12,-27 26,-27zm0 3c14,0 24,11 24,24 0,13 -10,24 -24,24 -13,0 -23,-11 -23,-24 0,-13 10,-24 23,-24z"/>
   <path class="fil1" d="M375 488l-9 0 -10 -14c-1,0 -1,0 -2,0 0,0 0,0 0,0 -1,0 -1,0 -1,0l0 9c0,1 0,3 1,3 0,1 1,1 2,1l1 0 0 1 -13 0 0 -1 1 0c2,0 3,0 3,-1 0,-1 1,-2 1,-3l0 -20c0,-2 -1,-3 -1,-4 -1,-1 -2,-1 -3,-1l-1 0 0 -1 11 0c4,0 6,1 8,1 1,0 2,1 3,3 2,1 2,2 2,4 0,2 -1,4 -2,5 -1,1 -3,2 -5,3l6 9c1,2 3,3 4,4 1,1 2,1 4,1l0 1zm-22 -16c0,0 0,0 1,0 0,0 0,0 0,0 3,0 5,0 7,-2 1,-1 2,-3 2,-5 0,-1 -1,-3 -2,-4 -1,-1 -3,-2 -5,-2 0,0 -2,0 -3,0l0 13z"/>
  </g>
 </g>
</svg>
